<svg width="31" height="31" viewBox="0 0 31 31" fill="none" xmlns="http://www.w3.org/2000/svg">
<path d="M15.5 29.0625C12.8176 29.0625 10.1954 28.2671 7.96508 26.7768C5.73474 25.2865 3.9964 23.1684 2.96989 20.6901C1.94338 18.2119 1.67479 15.485 2.19811 12.8541C2.72142 10.2232 4.01312 7.80662 5.90987 5.90987C7.80662 4.01312 10.2232 2.72142 12.8541 2.19811C15.485 1.67479 18.2119 1.94338 20.6901 2.96989C23.1684 3.9964 25.2865 5.73474 26.7768 7.96508C28.2671 10.1954 29.0625 12.8176 29.0625 15.5C29.0625 19.097 27.6336 22.5467 25.0901 25.0901C22.5467 27.6336 19.097 29.0625 15.5 29.0625ZM15.5 3.87501C13.2008 3.87501 10.9532 4.5568 9.0415 5.83417C7.12978 7.11154 5.63978 8.92712 4.75991 11.0513C3.88004 13.1755 3.64982 15.5129 4.09838 17.7679C4.54693 20.023 5.6541 22.0943 7.27989 23.7201C8.90567 25.3459 10.9771 26.4531 13.2321 26.9016C15.4871 27.3502 17.8245 27.12 19.9487 26.2401C22.0729 25.3602 23.8885 23.8702 25.1658 21.9585C26.4432 20.0468 27.125 17.7992 27.125 15.5C27.125 12.4169 25.9002 9.46 23.7201 7.27989C21.54 5.09978 18.5831 3.87501 15.5 3.87501Z" fill="black"/>
<path d="M19.9466 21.3125L14.5312 15.8972V6.78125H16.4687V15.0931L21.3125 19.9466L19.9466 21.3125Z" fill="black"/>
</svg>
