<svg width="28" height="35" viewBox="0 0 28 35" fill="none" xmlns="http://www.w3.org/2000/svg">
<path d="M13.9999 0.214355C21.6927 0.214355 27.9284 6.45007 27.9284 14.1429C27.9284 20.0286 23.7927 26.4429 15.6284 33.4544C15.1745 33.8443 14.5957 34.0585 13.9972 34.058C13.3987 34.0575 12.8203 33.8423 12.367 33.4515L11.827 32.9829C4.02415 26.1544 0.0712891 19.8972 0.0712891 14.1429C0.0712891 6.45007 6.307 0.214355 13.9999 0.214355ZM13.9999 2.35721C10.8741 2.35721 7.87635 3.59892 5.6661 5.80917C3.45585 8.01942 2.21415 11.0172 2.21415 14.1429C2.21415 19.1458 5.85415 24.9101 13.2341 31.3672L13.767 31.8286C13.8318 31.8844 13.9144 31.915 13.9999 31.915C14.0853 31.915 14.1679 31.8844 14.2327 31.8286C21.9699 25.1829 25.7856 19.2644 25.7856 14.1429C25.7856 12.5952 25.4807 11.0626 24.8884 9.63273C24.2962 8.20282 23.428 6.90357 22.3336 5.80917C21.2392 4.71476 19.94 3.84663 18.5101 3.25435C17.0801 2.66206 15.5476 2.35721 13.9999 2.35721ZM13.9999 8.78578C15.4207 8.78578 16.7833 9.3502 17.7879 10.3549C18.7926 11.3595 19.357 12.7221 19.357 14.1429C19.357 15.5637 18.7926 16.9263 17.7879 17.931C16.7833 18.9357 15.4207 19.5001 13.9999 19.5001C12.5791 19.5001 11.2164 18.9357 10.2118 17.931C9.20713 16.9263 8.64272 15.5637 8.64272 14.1429C8.64272 12.7221 9.20713 11.3595 10.2118 10.3549C11.2164 9.3502 12.5791 8.78578 13.9999 8.78578ZM13.9999 10.9286C13.1474 10.9286 12.3298 11.2673 11.727 11.8701C11.1242 12.4729 10.7856 13.2904 10.7856 14.1429C10.7856 14.9954 11.1242 15.813 11.727 16.4158C12.3298 17.0186 13.1474 17.3572 13.9999 17.3572C14.8523 17.3572 15.6699 17.0186 16.2727 16.4158C16.8755 15.813 17.2141 14.9954 17.2141 14.1429C17.2141 13.2904 16.8755 12.4729 16.2727 11.8701C15.6699 11.2673 14.8523 10.9286 13.9999 10.9286Z" fill="black"/>
</svg>
